<?xml version="1.0" encoding="UTF-8" standalone="no"?>
<!-- Created with Inkscape (http://www.inkscape.org/) -->

<svg
   width="128.98799mm"
   height="107.15046mm"
   viewBox="0 0 128.98799 107.15046"
   version="1.1"
   id="svg1"
   xmlns="http://www.w3.org/2000/svg"
   xmlns:svg="http://www.w3.org/2000/svg">
  <defs
     id="defs1" />
  <g
     id="layer1"
     transform="translate(-33.963303,-84.912133)">
    <path
       id="rect1"
       style="fill:#008000;stroke:none;stroke-width:8.60039"
       d="m 84.829964,84.91213 c -2.044732,0 -4.089722,0.822252 -5.656502,2.467549 L 36.313546,132.38727 c -1.605778,1.68625 -2.382971,3.89956 -2.34301,6.09988 -9.72e-4,0.0535 -0.0072,0.10673 -0.0072,0.1602 -10e-7,0.59128 0.06515,1.18188 0.183968,1.76268 0.477417,2.64692 2.031442,4.9059 4.20026,6.3128 l 40.825932,42.8718 c 3.13357,3.29059 8.178918,3.2906 11.312488,0 3.13356,-3.2906 3.13356,-8.58878 0,-11.87938 l -28.045317,-29.4504 h 90.933983 c 5.30534,0 9.57667,-4.27082 9.57667,-9.57616 0,-5.30534 -4.27133,-9.57667 -9.57667,-9.57667 H 62.057194 L 90.48595,99.259058 c 3.13356,-3.290602 3.13356,-8.588782 0,-11.879379 -1.56678,-1.645298 -3.611253,-2.46755 -5.655986,-2.467549 z" />
  </g>
</svg>
