<?xml version="1.0" encoding="UTF-8" standalone="no"?>
<!-- Created with Inkscape (http://www.inkscape.org/) -->

<svg
   width="186.78613mm"
   height="156.10641mm"
   viewBox="0 0 186.78613 156.10641"
   version="1.1"
   id="svg1"
   xml:space="preserve"
   xmlns:xlink="http://www.w3.org/1999/xlink"
   xmlns="http://www.w3.org/2000/svg"
   xmlns:svg="http://www.w3.org/2000/svg"><defs
     id="defs1"><linearGradient
       id="linearGradient1"><stop
         style="stop-color:#8a2be2;stop-opacity:1"
         offset="0"
         id="stop2" /><stop
         style="stop-color:#1c6bf9;stop-opacity:1;"
         offset="1"
         id="stop1" /></linearGradient><linearGradient
       xlink:href="#linearGradient1"
       id="linearGradient2"
       x1="76.440681"
       y1="133.43594"
       x2="114.79513"
       y2="167.90129"
       gradientUnits="userSpaceOnUse"
       gradientTransform="translate(-6.0689655,-24.275862)" /><linearGradient
       xlink:href="#linearGradient1"
       id="linearGradient5"
       gradientUnits="userSpaceOnUse"
       x1="76.440681"
       y1="133.43594"
       x2="114.79513"
       y2="167.90129"
       gradientTransform="matrix(1.9904119,0,0,1.9904119,-80.369343,-180.81267)" /></defs><g
     id="layer1"
     transform="translate(-13.331127,-47.637284)"><path
       d="m 60.701635,144.79651 -0.211873,0.6351 h 0.211873 z"
       style="fill:url(#linearGradient2)"
       id="path3" /><path
       d="m 74.415597,47.653118 c -1.139107,-0.05036 -2.247121,0.002 -2.785379,0.414523 -0.784242,0.600707 -0.80538,2.67171 -0.982288,3.581488 -0.600746,3.089557 -1.183371,6.185285 -1.825717,9.268495 -1.724712,8.27858 -3.330942,16.57499 -5.05647,24.857542 -0.830818,3.98789 -2.067282,8.16357 -2.38732,12.2174 l 15.167351,-0.42173 -13.973176,34.126044 -6.389501,15.58803 -3.230751,8.42609 h -0.420687 v 1.26411 h -0.421715 l 0.421715,-1.26411 3.229722,-10.9533 7.864475,-26.54234 4.072125,-14.74563 H 54.638179 L 60.185278,68.922994 63.484943,47.857812 H 51.689257 V 158.23922 c 18.655155,0 37.325052,0.42069 56.032593,0.42069 9.6406,0 20.15621,1.18907 29.49127,-1.404 16.73834,-4.64954 27.3938,-22.56836 23.87423,-39.46226 -0.86977,-4.17489 -2.45521,-8.14724 -4.63475,-11.79672 -0.74523,-1.24782 -3.0396,-3.14132 -3.01888,-4.63373 0.0159,-1.13806 1.31751,-2.407694 1.82572,-3.370634 1.03786,-1.96646 1.85469,-4.15026 2.45727,-6.31956 2.34741,-8.450672 1.6766,-17.867372 -2.45727,-25.699962 -4.12867,-7.822732 -11.35068,-13.917771 -19.73113,-16.711235 -5.45132,-1.817107 -11.1762,-1.403997 -16.85216,-1.403997 H 93.819639 77.388176 c -0.663136,0 -1.83347,-0.154257 -2.972579,-0.204694 z m 46.185023,26.118586 c 1.94951,-0.0571 3.8898,-0.0221 5.65922,0.34663 5.74031,1.1959 8.70572,8.67688 4.49383,13.271692 -2.85391,3.11336 -7.4273,2.59818 -11.23512,2.59818 h -13.90322 c -2.27323,0 -4.94482,-0.38369 -7.161961,0.13993 -4.44157,1.04871 -8.728,4.65378 -9.971,9.12858 -2.050179,7.380634 2.43673,14.932314 9.971,16.711244 2.217141,0.52348 4.888751,0.14092 7.161961,0.14092 h 15.16735 c 2.43631,0 5.19589,-0.35745 7.58367,0.13993 7.02713,1.46399 9.71029,10.484 3.37064,14.88655 -3.33061,2.31292 -8.79063,1.404 -12.63911,1.404 H 90.027289 80.758813 c -0.880937,0 -2.563969,0.33586 -3.159779,-0.49165 -0.916027,-1.27228 -0.210858,-5.12193 -0.210858,-6.67031 V 106.84043 81.982884 c 0,-1.96545 -0.02727,-3.93261 0,-5.89785 0.01194,-0.84272 -0.09574,-1.69822 0.842402,-2.03657 1.153981,-0.41619 2.989811,-0.0699 4.213039,-0.0699 h 9.690192 22.751031 c 1.80779,0 3.76628,-0.14968 5.71578,-0.20674 z"
       style="fill:url(#linearGradient5);stroke-width:1.99041"
       id="path2" /><text
       xml:space="preserve"
       style="font-style:normal;font-variant:normal;font-weight:normal;font-stretch:normal;font-size:22.5778px;font-family:'A GALEGA';-inkscape-font-specification:'A GALEGA, Normal';font-variant-ligatures:normal;font-variant-caps:normal;font-variant-numeric:normal;font-variant-east-asian:normal;text-align:start;writing-mode:lr-tb;direction:ltr;text-anchor:start;fill:#305ff5;fill-opacity:0.839216;stroke-width:10"
       x="13.331128"
       y="203.58563"
       id="text5"><tspan
         id="tspan5"
         style="font-style:normal;font-variant:normal;font-weight:normal;font-stretch:normal;font-size:22.5778px;font-family:'A GALEGA';-inkscape-font-specification:'A GALEGA, Normal';font-variant-ligatures:normal;font-variant-caps:normal;font-variant-numeric:normal;font-variant-east-asian:normal;fill:#305ff5;fill-opacity:0.839216;stroke-width:10"
         x="13.331128"
         y="203.58563">Byte Boost</tspan></text></g></svg>
