<?xml version="1.0" encoding="UTF-8" standalone="no"?>
<!-- Created with Inkscape (http://www.inkscape.org/) -->

<svg
   width="147.6553mm"
   height="142.77563mm"
   viewBox="0 0 147.6553 142.77563"
   version="1.1"
   id="svg1"
   xmlns:xlink="http://www.w3.org/1999/xlink"
   xmlns="http://www.w3.org/2000/svg"
   xmlns:svg="http://www.w3.org/2000/svg">
  <defs
     id="defs1">
    <linearGradient
       id="linearGradient129">
      <stop
         style="stop-color:#00ffff;stop-opacity:1"
         offset="0"
         id="stop130" />
      <stop
         style="stop-color:#000080;stop-opacity:1;"
         offset="1"
         id="stop129" />
    </linearGradient>
    <linearGradient
       xlink:href="#linearGradient129"
       id="linearGradient130"
       x1="34.798492"
       y1="64.545593"
       x2="172.86993"
       y2="152.47726"
       gradientUnits="userSpaceOnUse" />
    <filter
       style="color-interpolation-filters:sRGB"
       id="filter181"
       x="-0.034892936"
       y="-0.054760912"
       width="1.0697859"
       height="1.1095218">
      <feGaussianBlur
         stdDeviation="1 1"
         result="fbSourceGraphic"
         id="feGaussianBlur181" />
      <feColorMatrix
         result="fbSourceGraphicAlpha"
         in="fbSourceGraphic"
         values="0 0 0 -1 0 0 0 0 -1 0 0 0 0 -1 0 0 0 0 1 0"
         id="feColorMatrix181" />
      <feGaussianBlur
         id="feGaussianBlur182"
         stdDeviation="1 1"
         result="blur"
         in="fbSourceGraphic" />
    </filter>
  </defs>
  <g
     id="layer1"
     transform="translate(-34.968404,-60.104132)">
    <g
       id="g182">
      <path
         id="path179"
         style="font-size:124.996px;font-family:PaybAck;-inkscape-font-specification:'PaybAck, Normal';fill:#000000;fill-opacity:0.23217;filter:url(#filter181)"
         d="m 63.452454,64.931954 c -14.770035,3.580615 -22.500674,5.534079 -23.192383,5.85959 2.307251,29.335046 3.848937,50.161656 4.746997,61.901646 l 35.582324,-9.37152 c 3.462498,-9.98734 5.837128,-16.93999 6.299874,-18.55959 h 0.243913 l 2.230355,16.24862 40.531346,-10.6748 -0.21756,0.74931 c 0.0678,-0.22685 0.16695,-0.55967 0.23461,-0.786 22.89021,-5.5155 35.50201,-8.81117 37.16982,-9.74204 7.16123,-3.946822 10.74198,-8.666355 10.74198,-14.159343 v -0.488342 -0.24443 c 0,-5.004723 -1.05815,-9.073453 -3.17396,-12.20649 -2.88891,-5.533677 -9.8059,-8.300269 -20.75119,-8.300269 h -10.71356 c -7.69714,-0.539184 -15.83016,-0.06262 -23.63992,0 h -4.95215 c -0.25732,0.321658 -1.57331,11.281832 -3.86488,32.047657 -0.69935,2.663374 -1.33444,5.062327 -2.11098,8.044467 h -0.48835 c -2.44129,-20.344401 -3.74344,-30.516481 -3.9062,-30.516481 -0.44758,-6.510209 -1.01723,-9.765295 -1.70894,-9.765295 H 80.053508 c -0.325511,0.406888 -5.045567,13.91522 -14.159859,40.525686 h -0.243913 c -1.139287,-22.256764 -1.70894,-37.917451 -1.70894,-39.585692 0,-0.244133 -0.162831,-0.569796 -0.488342,-0.976684 z m 73.845076,20.733101 h 9.76529 c 3.74337,0 5.61516,1.546645 5.61516,4.638993 0,5.208167 -2.60427,7.811927 -7.81244,7.811927 h -9.03304 z m 23.19238,21.972295 c -0.61033,0 -18.09171,4.71163 -52.14824,13.17491 -0.0399,0 0.11302,0.30401 -0.0124,0.002 l -18.319264,4.90874 0.541052,3.94136 c 1.627552,15.13623 2.685762,22.69589 3.173962,22.70404 l 11.17331,0.18649 c 0.21669,0.003 0.21874,0.003 0.41769,0.003 h 35.88773 c 7.32398,0 14.24098,-1.05763 20.75119,-3.17345 9.92806,-5.8185 14.89211,-14.52613 14.89211,-26.12244 0,-3.58061 -1.62781,-6.99854 -4.88291,-10.25364 -4.63852,-3.58062 -8.46326,-5.37073 -11.47423,-5.37073 z m -26.85469,9.7653 h 9.52138 c 5.85919,0 8.78861,1.79011 8.78861,5.37073 0,5.53367 -2.92942,8.30079 -8.78861,8.30079 h -10.98589 c 0.97652,-7.2833 1.46451,-11.75937 1.46451,-13.42761 z m -54.943386,11.3528 -33.299776,8.92245 c 0.23175,2.94223 0.409047,5.10494 0.482658,5.65702 0,6.02194 0.407337,9.03304 1.221114,9.03304 H 70.0443 l 0.487825,-0.24392 c 3.531583,-10.05362 5.764432,-16.48467 8.159709,-23.36859 z" />
      <path
         id="text128"
         style="font-size:124.996px;font-family:PaybAck;-inkscape-font-specification:'PaybAck, Normal';fill:url(#linearGradient130);fill-opacity:1"
         d="m 58.160791,64.667371 c -14.770035,3.580615 -22.500674,5.534079 -23.192383,5.85959 2.307251,29.335047 3.848937,50.161659 4.746997,61.901649 l 35.582324,-9.37152 c 3.462498,-9.98734 5.837128,-16.93999 6.299874,-18.55959 h 0.243913 l 2.230355,16.24862 40.531379,-10.6748 -0.21756,0.74931 c 0.0678,-0.22685 0.16695,-0.55967 0.23461,-0.786 22.89021,-5.5155 35.50201,-8.81117 37.16982,-9.74204 7.16123,-3.946825 10.74198,-8.666358 10.74198,-14.159346 v -0.488342 -0.24443 c 0,-5.004723 -1.05815,-9.073453 -3.17396,-12.20649 -2.88891,-5.533677 -9.8059,-8.300269 -20.75119,-8.300269 h -10.71356 c -7.69714,-0.539184 -15.83016,-0.06262 -23.63992,0 h -4.95215 c -0.25732,0.321658 -1.57331,11.281832 -3.86488,32.047657 -0.69935,2.663374 -1.33444,5.06233 -2.11098,8.04447 h -0.48835 C 100.39582,84.641436 99.093667,74.469356 98.930912,74.469356 98.483335,67.959147 97.913682,64.704061 97.221973,64.704061 H 74.761845 c -0.325511,0.406888 -5.045567,13.91522 -14.159859,40.525689 h -0.243913 c -1.139287,-22.256767 -1.70894,-37.917454 -1.70894,-39.585695 0,-0.244133 -0.162831,-0.569796 -0.488342,-0.976684 z M 132.0059,85.400472 h 9.76529 c 3.74337,0 5.61516,1.546645 5.61516,4.638993 0,5.208167 -2.60427,7.811927 -7.81244,7.811927 h -9.03304 z m 23.19238,21.972298 c -0.61033,0 -18.09171,4.71163 -52.14824,13.17491 -0.0399,0 0.11302,0.30401 -0.0124,0.002 l -18.319297,4.90874 0.541052,3.94136 c 1.627552,15.13623 2.685769,22.69589 3.173967,22.70404 l 11.173336,0.18649 c 0.216695,0.003 0.218742,0.003 0.417692,0.003 h 35.88773 c 7.32398,0 14.24098,-1.05763 20.75119,-3.17345 9.92806,-5.8185 14.89211,-14.52613 14.89211,-26.12244 0,-3.58061 -1.62781,-6.99854 -4.88291,-10.25364 -4.63852,-3.58062 -8.46326,-5.37073 -11.47423,-5.37073 z m -26.85469,9.7653 h 9.52138 c 5.85919,0 8.78861,1.79011 8.78861,5.37073 0,5.53367 -2.92942,8.30079 -8.78861,8.30079 h -10.98589 c 0.97652,-7.2833 1.46451,-11.75937 1.46451,-13.42761 z m -54.943419,11.3528 -33.299776,8.92245 c 0.23175,2.94223 0.409047,5.10494 0.482658,5.65702 0,6.02194 0.407337,9.03304 1.221114,9.03304 h 22.94847 l 0.487825,-0.24392 c 3.531583,-10.05362 5.764432,-16.48467 8.159709,-23.36859 z" />
    </g>
    <text
       xml:space="preserve"
       style="font-style:normal;font-variant:normal;font-weight:normal;font-stretch:normal;font-size:38.2901px;font-family:Qahiri;-inkscape-font-specification:'Qahiri, Normal';font-variant-ligatures:normal;font-variant-caps:normal;font-variant-numeric:normal;font-variant-east-asian:normal;text-align:start;writing-mode:lr-tb;direction:ltr;text-anchor:start;fill:#0080c0;fill-opacity:1;stroke-width:0.30633"
       x="42.056404"
       y="202.87975"
       id="text182"><tspan
         id="tspan182"
         style="font-style:normal;font-variant:normal;font-weight:normal;font-stretch:normal;font-size:38.2901px;font-family:'American Captain';-inkscape-font-specification:'American Captain, Normal';font-variant-ligatures:normal;font-variant-caps:normal;font-variant-numeric:normal;font-variant-east-asian:normal;fill:#0080c0;fill-opacity:1;stroke-width:0.30633"
         x="42.056404"
         y="202.87975">Byte Wave</tspan></text>
  </g>
</svg>
