<?xml version="1.0" encoding="UTF-8" standalone="no"?>
<!-- Created with Inkscape (http://www.inkscape.org/) -->

<svg
   width="267.47467mm"
   height="211.71124mm"
   viewBox="0 0 267.47467 211.71124"
   version="1.1"
   id="svg1"
   xml:space="preserve"
   xmlns="http://www.w3.org/2000/svg"
   xmlns:svg="http://www.w3.org/2000/svg"><defs
     id="defs1" /><g
     id="g55"
     style="fill:#000000"
     transform="matrix(3.0693715,0,0,3.1097326,-190.23558,-368.62883)"><path
       style="fill:#ffffff;stroke:none;stroke-width:1.56695;stroke-opacity:1"
       d="m 113.60004,183.17079 c -0.89723,-1.42237 -3.4252,-5.7049 -6.55627,-11.10678 -1.36912,-2.36204 -2.85162,-4.85909 -3.29444,-5.549 l -0.80511,-1.2544 -3.236105,5.645 c -3.1117,5.42796 -3.75482,6.66469 -5.793067,11.14031 -0.509067,1.11778 -1.209207,2.60438 -1.555868,3.30351 l -0.63028,1.27114 -1.350148,-2.14692 c -2.56116,-4.07272 -3.956356,-11.88275 -3.599875,-20.15157 0.05589,-1.29639 0.06132,-2.50745 0.0121,-2.69129 -0.260742,-0.97311 -7.260327,8.57661 -9.754636,13.30848 -0.875247,1.66041 -1.708549,3.05032 -1.851784,3.0887 -0.384621,0.10298 -1.906432,-7.67618 -2.062832,-10.54491 -0.236369,-4.33548 0.892863,-13.01317 2.319394,-17.82355 0.227924,-0.7686 0.392776,-1.48086 0.366074,-1.58289 -0.02658,-0.10197 -3.074428,1.32863 -6.772989,3.17922 -3.698564,1.85059 -6.861153,3.40752 -7.027982,3.45984 -0.166848,0.0524 0.441683,-1.07155 1.352241,-2.49739 5.835581,-9.13813 13.121519,-17.88497 19.950574,-23.95087 6.338419,-5.63007 10.896949,-7.95551 17.730223,-9.04468 2.29036,-0.36507 5.09658,-0.67168 6.23609,-0.68138 5.66739,-0.0483 12.63621,1.66265 16.25534,3.99079 1.27552,0.82055 2.59023,1.41927 2.92154,1.33049 1.16888,-0.31319 7.47719,0.26774 10.52852,0.96959 3.40008,0.78207 6.90895,2.51327 8.90012,4.39117 1.27282,1.20036 3.46352,4.63453 3.22261,5.05179 -0.0682,0.1183 -0.94523,0.0798 -1.94898,-0.0849 -2.412,-0.39603 -6.85172,-0.57019 -7.02191,-0.27546 -0.0742,0.12835 0.5573,0.25374 1.40315,0.27859 l 1.53793,0.0453 -1.4774,1.076 c -3.00606,2.18934 -9.66733,6.48691 -12.00302,7.74385 -5.91225,3.18175 -5.74576,3.04033 -7.78633,6.61439 -4.04708,7.08845 -6.64807,18.9218 -7.48186,34.03895 -0.0192,0.34775 -0.29357,0.14319 -0.72497,-0.54079 z m -20.859286,-7.91747 c 1.858601,-3.87568 5.891101,-10.32087 7.493036,-11.97623 0.89081,-0.92052 2.25547,-1.923 3.0326,-2.22772 l 1.41299,-0.55404 3.3698,5.80483 3.36979,5.80483 0.27801,-1.69185 c 2.60389,-15.84573 6.7772,-25.5887 12.27827,-28.66471 1.18585,-0.66308 1.36339,-0.95656 1.61186,-2.66457 0.40213,-2.76437 0.10842,-6.81527 -0.63792,-8.79797 -1.42774,-3.79292 -4.83946,-5.9945 -11.18727,-7.21918 -4.14974,-0.80058 -6.45694,-0.86576 -10.73167,-0.30314 -8.046705,1.05914 -13.569344,4.24173 -21.337507,12.29653 -3.145321,3.26134 -8.418579,9.34234 -8.207238,9.46434 0.08418,0.0485 2.035749,-0.8247 4.336798,-1.94071 2.30105,-1.11598 4.265049,-1.98208 4.364458,-1.92472 0.0994,0.0572 -0.204101,1.08862 -0.674481,2.2916 -1.202616,3.07577 -2.895404,9.36035 -3.587909,13.3204 -0.650916,3.72216 -1.193431,10.70732 -0.847144,10.90725 0.122145,0.0704 0.651656,-0.57197 1.176655,-1.42782 1.155596,-1.88383 4.141214,-5.46198 5.768978,-6.9139 1.81282,-1.617 3.763021,-2.62541 5.446832,-2.8164 l 1.52328,-0.17277 -0.284428,4.91388 c -0.249823,4.31601 0.06805,14.32747 0.508114,16.00304 0.238819,0.9093 0.476388,0.67379 1.524096,-1.51097 z m 16.983386,-41.87413 c -1.46474,-0.099 -5.5235,-1.27478 -7.21545,-2.09013 -1.3364,-0.64407 -2.885765,-2.01559 -2.679845,-2.37224 0.603715,-1.04565 8.265105,-3.33837 10.539835,-3.1541 1.40166,0.11354 3.27014,0.70264 5.64124,1.77867 1.01998,0.46286 1.16635,0.66146 1.0029,1.36085 -0.10531,0.45038 -0.63146,1.38896 -1.1693,2.0857 -1.12818,1.46149 -3.89284,2.54187 -6.11939,2.39132 z"
       id="path54" /></g></svg>
