<?xml version="1.0" encoding="UTF-8" standalone="no"?>
<!-- Created with Inkscape (http://www.inkscape.org/) -->

<svg
   width="31.999998"
   height="31.999998"
   viewBox="0 0 8.4666661 8.4666661"
   version="1.1"
   id="svg1"
   xml:space="preserve"
   xmlns="http://www.w3.org/2000/svg"
   xmlns:svg="http://www.w3.org/2000/svg"><defs
     id="defs1" /><g
     id="layer1"
     transform="translate(-18.466665)"><path
       id="rect5"
       style="fill:#000000;fill-opacity:1;stroke-width:0.354855"
       d="m 24.486995,1.6345652 -4.222403,0.066735 c -0.476297,0.00751 -0.999809,0.1434208 -1.33112,1.5594174 -0.264861,1.1319831 -0.264591,1.689015 -0.359464,2.5754221 -0.204129,1.907192 1.688127,1.857914 2.657811,0.5849518 0.787594,-1.0339204 2.763664,-0.5059641 3.376493,0.255363 0.775064,0.9628737 2.848944,1.3564263 2.136024,-1.4334382 L 26.353668,3.7156043 C 25.963993,2.1906912 25.202888,1.6232855 24.486995,1.6345652 Z M 24.686416,2.542296 A 0.42998666,0.39866302 43.916828 0 1 25.131769,2.9563247 0.42998666,0.39866302 43.916828 0 1 24.749063,3.3703534 0.42998666,0.39866302 43.916828 0 1 24.303711,2.9563247 0.42998666,0.39866302 43.916828 0 1 24.686416,2.542296 Z m -4.437943,0.098059 c 0.110665,0 0.206298,0.089543 0.21467,0.2002048 l 0.03982,0.5263884 h 0.527069 c 0.110665,0 0.206246,0.088861 0.214619,0.1995236 0.0084,0.1106624 -0.07371,0.2002047 -0.184377,0.2002047 h -0.52707 l 0.03982,0.5263886 c 0.0084,0.1106623 -0.07377,0.1995236 -0.184427,0.1995236 -0.110665,0 -0.206247,-0.088861 -0.21462,-0.1995236 l -0.03982,-0.5263886 h -0.527069 c -0.110665,0 -0.206298,-0.089543 -0.21467,-0.2002047 -0.0084,-0.1106623 0.07377,-0.1995236 0.184429,-0.1995236 h 0.527069 l -0.03982,-0.526388 c -0.0084,-0.1106624 0.07372,-0.2002048 0.184378,-0.2002052 z m 3.88156,0.5045975 a 0.42998666,0.39866302 43.916828 0 1 0.445354,0.4140291 0.42998666,0.39866302 43.916828 0 1 -0.382706,0.4140287 0.42998666,0.39866302 43.916828 0 1 -0.445352,-0.4140287 0.42998666,0.39866302 43.916828 0 1 0.382704,-0.4140291 z m 1.204633,0 A 0.42998666,0.39866302 43.916828 0 1 25.78002,3.5589812 0.42998666,0.39866302 43.916828 0 1 25.397314,3.9730099 0.42998666,0.39866302 43.916828 0 1 24.951963,3.5589812 0.42998666,0.39866302 43.916828 0 1 25.334666,3.1449525 Z m -0.557113,0.601976 A 0.42998666,0.39866302 43.916828 0 1 25.222906,4.1609572 0.42998666,0.39866302 43.916828 0 1 24.8402,4.5749859 0.42998666,0.39866302 43.916828 0 1 24.394848,4.1609572 0.42998666,0.39866302 43.916828 0 1 24.777553,3.7469285 Z" /></g></svg>
