<?xml version="1.0" encoding="utf-8"?>
<svg width="96" height="96" viewBox="0 0 96 96" fill="none" xmlns="http://www.w3.org/2000/svg">
  <g opacity="0.9">
    <rect width="96" height="96" />
    <path id="Path" d="M9.808 0C9.808 0 62.19 0 62.19 0C67.608 0 72 4.392 72 9.808C72 9.808 72 62.19 72 62.19C72 67.608 67.608 72 62.192 72C62.192 72 9.808 72 9.808 72C4.392 72 0 67.608 0 62.192C0 62.192 0 9.808 0 9.808C0 4.392 4.392 0 9.808 0C9.808 0 9.808 0 9.808 0Z" fill="#212121" fill-rule="evenodd" transform="translate(12 12)" />
    <path id="Shape" d="M25.44 15.67C28.592 17.922 32.454 19.246 36.624 19.246C36.624 19.246 36.624 11.224 36.624 11.224C35.834 11.224 35.048 11.142 34.276 10.978C34.276 10.978 34.276 17.292 34.276 17.292C30.106 17.292 26.246 15.966 23.092 13.716C23.092 13.716 23.092 30.084 23.092 30.084C23.092 38.272 16.45 44.91 8.258 44.91C5.202 44.91 2.36 43.986 0 42.402C2.694 45.154 6.45 46.862 10.606 46.862C18.798 46.862 25.44 40.224 25.44 32.036C25.44 32.036 25.44 15.67 25.44 15.67L25.44 15.67C25.44 15.67 25.44 15.67 25.44 15.67ZM28.338 7.578C26.728 5.82 25.67 3.546 25.44 1.032C25.44 1.032 25.44 0 25.44 0C25.44 0 23.214 0 23.214 0C23.774 3.194 25.686 5.924 28.338 7.578C28.338 7.578 28.338 7.578 28.338 7.578C28.338 7.578 28.338 7.578 28.338 7.578ZM5.182 36.12C4.282 34.94 3.796 33.498 3.798 32.014C3.798 28.268 6.836 25.232 10.584 25.232C11.282 25.232 11.976 25.338 12.642 25.55C12.642 25.55 12.642 17.35 12.642 17.35C11.864 17.244 11.08 17.198 10.294 17.214C10.294 17.214 10.294 23.596 10.294 23.596C9.628 23.384 8.934 23.278 8.234 23.278C4.486 23.278 1.448 26.314 1.448 30.06C1.45 32.71 2.968 35.004 5.182 36.12C5.182 36.12 5.182 36.12 5.182 36.12Z" fill="#EC407A" fill-rule="evenodd" transform="translate(32.976 25.544)" />
    <path id="Path" d="M27.316 13.716C30.468 15.968 34.33 17.292 38.5 17.292C38.5 17.292 38.5 10.978 38.5 10.978C36.172 10.482 34.112 9.266 32.562 7.576C29.91 5.922 28 3.194 27.44 0C27.44 0 21.594 0 21.594 0C21.594 0 21.594 32.036 21.594 32.036C21.58 35.77 18.548 38.794 14.808 38.794C12.604 38.794 10.646 37.744 9.406 36.118C7.192 35.002 5.674 32.708 5.674 30.06C5.674 26.314 8.712 23.278 12.46 23.278C13.178 23.278 13.87 23.39 14.52 23.596C14.52 23.596 14.52 17.216 14.52 17.216C6.472 17.382 0 23.954 0 32.038C0 36.074 1.612 39.732 4.228 42.404C6.588 43.988 9.43 44.912 12.486 44.912C20.678 44.912 27.32 38.274 27.32 30.086C27.32 30.086 27.316 13.716 27.316 13.716L27.316 13.716C27.316 13.716 27.316 13.716 27.316 13.716Z" fill="#FFFFFF" fill-rule="evenodd" transform="translate(28.752 25.544)" />
    <path id="Shape" d="M40.852 12.934C40.852 12.934 40.852 11.226 40.852 11.226C38.752 11.23 36.696 10.642 34.914 9.53C36.49 11.256 38.566 12.446 40.852 12.934C40.852 12.934 40.852 12.934 40.852 12.934ZM29.79 1.954C29.736 1.648 29.696 1.342 29.668 1.032C29.668 1.032 29.668 0 29.668 0L21.596 0C21.596 0 21.596 32.038 21.596 32.038C21.584 35.772 18.55 38.796 14.81 38.796C13.712 38.796 12.676 38.536 11.758 38.072C12.998 39.698 14.956 40.748 17.16 40.748C20.9 40.748 23.932 37.724 23.946 33.99C23.946 33.99 23.946 1.954 23.946 1.954L29.79 1.954C29.79 1.954 29.79 1.954 29.79 1.954ZM16.87 19.17C16.87 19.17 16.87 17.352 16.87 17.352C16.196 17.26 15.516 17.214 14.834 17.214C6.64 17.214 0 23.852 0 32.04C0 37.174 2.61 41.698 6.576 44.358C3.96 41.686 2.348 38.028 2.348 33.992C2.348 25.908 8.822 19.336 16.87 19.17C16.87 19.17 16.87 19.17 16.87 19.17Z" fill="#81D4FA" fill-rule="evenodd" transform="translate(26.4 23.59)" />
  </g>
</svg>