<?xml version="1.0" encoding="UTF-8" standalone="no"?>
<!-- Created with Inkscape (http://www.inkscape.org/) -->

<svg
   width="186.3049mm"
   height="192.36021mm"
   viewBox="0 0 186.3049 192.36021"
   version="1.1"
   id="svg1"
   xmlns:xlink="http://www.w3.org/1999/xlink"
   xmlns="http://www.w3.org/2000/svg"
   xmlns:svg="http://www.w3.org/2000/svg">
  <defs
     id="defs1">
    <linearGradient
       id="linearGradient14">
      <stop
         style="stop-color:#666666;stop-opacity:1;"
         offset="0"
         id="stop14" />
      <stop
         style="stop-color:#000000;stop-opacity:1;"
         offset="1"
         id="stop15" />
    </linearGradient>
    <linearGradient
       xlink:href="#linearGradient14"
       id="linearGradient15"
       x1="46.669044"
       y1="82.475471"
       x2="172.99734"
       y2="119.15358"
       gradientUnits="userSpaceOnUse" />
  </defs>
  <g
     id="layer1"
     transform="translate(-15.026989,-13.537159)">
    <path
       id="rect1"
       style="fill:url(#linearGradient15);fill-opacity:1;stroke:none;stroke-width:8.83214;stroke-dasharray:none;stroke-opacity:1"
       d="m 107.75776,13.537158 a 5.6896548,5.6896548 0 0 0 -5.68957,5.689575 5.6896548,5.6896548 0 0 0 5.05602,5.644617 l -6.16345,12.868465 -6.417177,14.181047 H 86.203524 L 76.682141,39.922628 67.688375,28.845785 a 5.6896548,5.6896548 0 0 0 3.797701,-5.351612 5.6896548,5.6896548 0 0 0 -5.689575,-5.689575 5.6896548,5.6896548 0 0 0 -5.689576,5.689575 5.6896548,5.6896548 0 0 0 5.689576,5.689575 5.6896548,5.6896548 0 0 0 1.147733,-0.131258 l 2.992582,12.78475 2.522844,10.170438 v 5.084444 H 43.509489 c -15.779503,0 -28.482499,12.703513 -28.482499,28.483016 V 145.6955 c 0,15.7795 12.703094,14.58695 28.482499,14.64252 l 52.730631,0.18552 v -21.02249 c 0,-5.35143 5.325,-9.65936 11.93932,-9.65936 6.61432,0 11.93881,4.30793 11.93881,9.65936 v 21.02249 l 52.73063,-0.18552 c 15.7794,-0.0556 28.48302,1.13698 28.48302,-14.64252 V 85.575138 c 0,-15.779503 -12.70352,-28.483016 -28.48302,-28.483016 h -29.31294 v -3.843176 l 2.83032,-11.411706 2.8391,-12.130526 a 5.6896548,5.6896548 0 0 0 2.12545,0.425297 5.6896548,5.6896548 0 0 0 5.6901,-5.689575 5.6896548,5.6896548 0 0 0 -5.6901,-5.689575 5.6896548,5.6896548 0 0 0 -5.68957,5.689575 5.6896548,5.6896548 0 0 0 2.64738,4.804874 l -8.66768,10.675318 -9.52139,11.998234 h -9.05888 l -6.19548,-14.077694 -6.07405,-13.029179 a 5.6896548,5.6896548 0 0 0 4.6762,-5.587256 5.6896548,5.6896548 0 0 0 -5.68958,-5.689575 z m 52.26813,66.18149 a 21.876778,21.876778 0 0 1 21.8767,21.876702 21.876778,21.876778 0 0 1 -21.8767,21.8767 21.876778,21.876778 0 0 1 -21.87722,-21.8767 21.876778,21.876778 0 0 1 5.3852,-14.136606 h 0.002 v -0.0026 a 21.876778,21.876778 0 0 1 16.48995,-7.737512 z M 56.148511,80.097953 A 21.497467,21.497467 0 0 1 77.645907,101.59535 21.497467,21.497467 0 0 1 56.148511,123.09274 21.497467,21.497467 0 0 1 34.651115,101.59535 21.497467,21.497467 0 0 1 56.148511,80.097953 Z m 52.030929,55.707197 c -3.95109,0 -7.61132,1.52548 -7.13238,3.27577 l 4.55218,16.63412 c 0.50888,1.85969 0.57365,3.27577 2.5802,3.27577 2.05683,0 2.07301,-1.4222 2.58021,-3.27577 l 4.55166,-16.63412 c 0.47894,-1.75029 -3.18079,-3.27577 -7.13187,-3.27577 z" />
    <path
       id="text15"
       style="font-size:22.5778px;font-family:'A GALEGA';-inkscape-font-specification:'A GALEGA, Normal';text-align:start;writing-mode:lr-tb;direction:ltr;text-anchor:start;fill:#666666;fill-opacity:1;stroke:none;stroke-width:4.99999;stroke-dasharray:none;stroke-opacity:1"
       d="m 76.206486,181.69556 -8.228438,14.2534 -5.310787,-10.28568 c -0.541868,-1.03858 -1.82843,-1.44466 -2.867009,-0.90279 -1.061156,0.54187 -1.445331,1.82895 -0.926041,2.86753 l 7.134965,13.79502 c 0.361244,0.69991 1.061183,1.12861 1.828829,1.12861 h 0.0677 c 0.745067,0 1.467227,-0.38394 1.851049,-1.03869 l 8.06049,-13.77229 c 0.02698,-0.0477 0.04977,-0.0965 0.07286,-0.14521 l 6.565491,3.79047 c 0.625694,0.36124 0.840802,1.16282 0.479557,1.78852 -0.349956,0.60614 -1.151975,0.82116 -1.777669,0.45992 l -3.343465,-1.93063 c -0.743012,-0.42898 -1.667523,-0.36309 -2.355929,0.15193 -0.688406,0.51502 -0.975538,1.41829 -0.752409,2.25102 l 2.724382,10.22832 c 0.179595,0.54689 0.547204,0.99359 1.016475,1.26452 0.469271,0.27093 1.040103,0.36596 1.60352,0.24805 1.141148,-0.30577 1.818339,-1.47885 1.512569,-2.62 l -1.454175,-5.42809 c 2.441311,0.7838 5.189993,-0.18407 6.522083,-2.49132 1.524001,-2.63965 0.623125,-6.00173 -1.943551,-7.56181 l -6.726204,-3.88297 -1.44694,-0.83561 z" />
    <text
       xml:space="preserve"
       style="font-size:22.5778px;font-family:'A GALEGA';-inkscape-font-specification:'A GALEGA, Normal';text-align:start;writing-mode:lr-tb;direction:ltr;text-anchor:start;fill:#666666;fill-opacity:1;stroke:none;stroke-width:4.99999;stroke-dasharray:none;stroke-opacity:1"
       x="102.41379"
       y="202.74138"
       id="text17"><tspan
         id="tspan17"
         style="stroke-width:5"
         x="102.41379"
         y="202.74138">King</tspan></text>
  </g>
</svg>
