<?xml version="1.0" encoding="utf-8"?>
<svg width="96" height="96" viewBox="0 0 96 96" fill="none" xmlns="http://www.w3.org/2000/svg">
  <g>
    <rect width="96" height="96" />
    <path id="Path" d="M0 76.606C0 76.606 5.388 56.936 5.388 56.936C2.064 51.18 0.316 44.648 0.318 37.958C0.328 17.028 17.36 0 38.292 0C48.45 0.00399971 57.982 3.958 65.152 11.132C72.32 18.308 76.268 27.844 76.264 37.988C76.256 58.918 59.22 75.948 38.292 75.948C38.29 75.948 38.292 75.948 38.292 75.948C38.292 75.948 38.276 75.948 38.276 75.948C31.922 75.946 25.676 74.352 20.13 71.326C20.13 71.326 0 76.606 0 76.606L0 76.606Z" fill="#FFFFFF" fill-rule="evenodd" transform="translate(9.736 10)" />
    <path id="Path" d="M0.999125 78.606C0.735126 78.606 0.479125 78.502 0.289125 78.31C0.0391254 78.056 -0.0588741 77.686 0.0351257 77.344C0.0351257 77.344 5.31313 58.072 5.31313 58.072C2.04113 52.26 0.315125 45.66 0.319125 38.96C0.327126 17.476 17.8091 0 39.2911 0C49.7111 0.00399971 59.5011 4.062 66.8591 11.426C74.2171 18.792 78.2671 28.58 78.2631 38.988C78.2551 60.47 60.7711 77.948 39.2911 77.948C32.9131 77.946 26.6031 76.372 21.0031 73.394C21.0031 73.394 1.25313 78.572 1.25313 78.572C1.16913 78.596 1.08512 78.606 0.999125 78.606C0.999125 78.606 0.999125 78.606 0.999125 78.606Z" fill="#FFFFFF" fill-rule="evenodd" transform="translate(8.737 9)" />
    <path id="Shape" d="M40.2928 0C40.2928 0 40.2928 0 40.2928 0C18.2608 0 0.328823 17.924 0.318823 39.958C0.316823 46.692 2.01682 53.328 5.24082 59.202C5.24082 59.202 0.0708232 78.08 0.0708232 78.08C-0.117177 78.77 0.0748234 79.506 0.578823 80.014C0.958823 80.398 1.47282 80.608 2.00082 80.608C2.17082 80.608 2.34082 80.586 2.50882 80.542C2.50882 80.542 21.8828 75.462 21.8828 75.462C27.5388 78.398 33.8788 79.948 40.2768 79.95C62.3248 79.95 80.2568 62.024 80.2668 39.99C80.2708 29.312 76.1168 19.272 68.5708 11.72C61.0208 4.166 50.9788 0.00399971 40.2928 0C40.2928 0 40.2928 0 40.2928 0L40.2928 0Z" fill="#C1F5EA" fill-rule="evenodd" transform="translate(7.735 8)" />
    <path id="Path" d="M53.888 9.252C47.928 3.288 40.006 0.00200081 31.574 0C14.166 0 0.00800133 14.152 1.90735e-06 31.548C-0.0019989 37.51 1.666 43.314 4.826 48.34C4.826 48.34 5.578 49.534 5.578 49.534L2.388 61.176L14.334 58.044C14.334 58.044 15.488 58.728 15.488 58.728C20.332 61.604 25.888 63.124 31.552 63.126C31.552 63.126 31.564 63.126 31.564 63.126C48.96 63.126 63.118 48.972 63.124 31.574C63.126 23.144 59.848 15.216 53.888 9.252C53.888 9.252 53.888 9.252 53.888 9.252Z" fill="#00B569" fill-rule="evenodd" transform="translate(16.464 16.412)" />
    <path id="Path" d="M9.806 1.66204C9.096 0.0820408 8.348 0.0500412 7.67 0.0220413C7.116 -0.00195885 6.484 4.19617e-05 5.852 4.19617e-05C5.22 4.19617e-05 4.192 0.238043 3.322 1.18804C2.452 2.13804 0 4.43204 0 9.10004C0 13.768 3.4 18.28 3.874 18.912C4.348 19.544 10.438 29.43 20.082 33.234C28.096 36.394 29.728 35.766 31.468 35.608C33.208 35.45 37.082 33.314 37.872 31.098C38.662 28.882 38.662 26.984 38.426 26.588C38.188 26.192 37.556 25.956 36.608 25.48C35.66 25.004 30.994 22.71 30.124 22.394C29.254 22.078 28.622 21.92 27.988 22.87C27.356 23.818 25.538 25.956 24.984 26.588C24.43 27.222 23.876 27.302 22.928 26.826C21.98 26.35 18.924 25.35 15.298 22.118C12.478 19.604 10.574 16.498 10.02 15.548C9.466 14.6 9.95999 14.086 10.436 13.612C10.862 13.186 11.384 12.504 11.86 11.95C12.334 11.396 12.492 11 12.808 10.368C13.124 9.73403 12.966 9.18003 12.728 8.70603C12.494 8.23004 10.65 3.53804 9.806 1.66204C9.806 1.66204 9.806 1.66204 9.806 1.66204Z" fill="#C1F5EA" fill-rule="evenodd" transform="translate(28.73 30.428)" />
  </g>
</svg>